<svg xmlns="http://www.w3.org/2000/svg" width="144.245" height="24" viewBox="0 0 144.245 24"><g transform="translate(-1084.72 -148.52)"><path d="M59.46-17.341l3.075,8.517h2.8L69.12-22.43H65.5l-1.932,7.81L60.63-22.43H58.072l-2.748,7.782L53.392-22.43H49.8L53.555-8.824h2.83Zm18.884,4.653a2.427,2.427,0,0,1-2.422,1.17c-1.932,0-2.531-1.361-2.558-3.238H81.12v-1.551c0-4.136-1.769-6.367-5.605-6.367-3.537,0-5.605,1.986-5.605,6.1v1.85c0,3.51,1.959,6.15,6.041,6.15,2.449,0,4.027-.653,4.98-2.313Zm-2.8-7.048c1.306,0,2.014.735,2.1,2.5H73.365C73.5-18.784,74.154-19.736,75.541-19.736ZM86.916-27.6H83.623V-8.824h3.293v-.816A3.768,3.768,0,0,0,89.854-8.58c3.592,0,5.361-2.531,5.361-6.259v-1.633c0-4.082-2.1-6.2-5.361-6.2a3.837,3.837,0,0,0-2.939,1.088Zm2.422,16.082c-1.823,0-2.422-1.469-2.422-3.429v-1.415c0-2.177.707-3.374,2.422-3.374s2.422,1.2,2.422,3.374v1.415C91.759-12.988,91.215-11.518,89.337-11.518Zm24.9-10.2a4.316,4.316,0,0,0-2.912-.952c-3.238,0-5.388,2.122-5.388,6.1v1.85c0,3.619,1.823,6.15,5.388,6.15a4.074,4.074,0,0,0,2.912-1.034v.789h3.456V-27.6h-3.456Zm-2.422,10.2c-1.878,0-2.422-1.469-2.422-3.429v-1.415c0-2.177.707-3.374,2.422-3.374,1.633,0,2.422,1.088,2.422,3.075v1.714C114.235-12.988,113.773-11.518,111.814-11.518Zm16.626-1.17a2.427,2.427,0,0,1-2.422,1.17c-1.932,0-2.531-1.361-2.558-3.238h7.755v-1.551c0-4.136-1.769-6.367-5.605-6.367-3.537,0-5.605,1.986-5.605,6.1v1.85c0,3.51,1.959,6.15,6.041,6.15,2.449,0,4.027-.653,4.98-2.313Zm-2.8-7.048c1.306,0,2.014.735,2.1,2.5H123.46C123.6-18.784,124.249-19.736,125.637-19.736Zm16.109-2.694-3.02,8.816-3.048-8.816h-3.81l5.279,13.605h3.265l5.17-13.605Z" transform="translate(1075.11 178.759)" fill="#22232a"/><path d="M124.453-26.555c0-1.769.517-1.986,1.741-1.986h.381V-31.48H125.46c-2.776,0-4.463.68-4.463,4.218v4.844c0,1.034-.408,1.415-1.361,1.415h-.517v3.048h.517c.952,0,1.361.381,1.361,1.415V-11.7c0,3.537,1.687,4.218,4.463,4.218h1.116v-2.939h-.381c-1.224,0-1.741-.218-1.741-1.986v-5.17a1.913,1.913,0,0,0-1.224-1.9c.844-.272,1.224-.735,1.224-1.9Zm46.2,5.17c0,1.17.381,1.633,1.224,1.9a1.913,1.913,0,0,0-1.224,1.9v5.17c0,1.769-.49,1.986-1.714,1.986h-.381V-7.48h1.116c2.776,0,4.463-.68,4.463-4.218v-4.844c0-1.034.408-1.415,1.361-1.415h.517V-21H175.5c-.952,0-1.361-.381-1.361-1.415v-4.844c0-3.537-1.687-4.218-4.463-4.218h-1.116v2.939h.381c1.224,0,1.714.218,1.714,1.986Z" transform="translate(1052.947 180)" fill="#0088f1"/><path d="M46-6.24H41.76V-2H46Z" transform="translate(1077.681 172.175)" fill="#ff8900"/><path d="M6.53-27.6H2.72V-8.824h11.7v-3.211H6.53Zm18.993,5.85L29.5-8.824h3.646L37.468-27.6H33.359L30.883-15.165,27.21-27.6H23.781L20.217-15.246,17.713-27.6H13.632l4.3,18.776H21.55Z" transform="translate(1082 178.759)" fill="#22232a"/></g></svg>