<svg xmlns="http://www.w3.org/2000/svg" width="16.001" height="16.001" viewBox="0 0 16.001 16.001">
  <g id="rocket-takeoff" transform="translate(0.001 0)">
    <path id="Path_1" data-name="Path 1" d="M9.752,6.193a1.841,1.841,0,0,0,2.528-.362A1.848,1.848,0,0,0,12.642,3.3a1.841,1.841,0,0,0-2.528.361,1.849,1.849,0,0,0-.362,2.532Z" fill="#fff"/>
    <path id="Path_2" data-name="Path 2" d="M15.811,3.312a14.791,14.791,0,0,1-3.64,6.218l-.24,2.408a2.56,2.56,0,0,1-.732,1.526L8.817,15.85a.51.51,0,0,1-.867-.434l.27-1.9a2.15,2.15,0,0,0-.131-.956q-.112-.333-.249-.657l-.082-.2a4.718,4.718,0,0,1-2.191-1.277A4.731,4.731,0,0,1,4.292,8.23l-.2-.083q-.323-.136-.655-.248a2.134,2.134,0,0,0-.955-.132l-1.9.27A.51.51,0,0,1,.15,7.17L2.532,4.784A2.555,2.555,0,0,1,4.056,4.05h.006l2.4-.238a14.817,14.817,0,0,1,6.161-3.6A6.388,6.388,0,0,1,14.7.02a3.983,3.983,0,0,1,.57.093c.067.017.12.033.16.045a.488.488,0,0,1,.351.295l.029.073a3.475,3.475,0,0,1,.157.721,6.031,6.031,0,0,1-.159,2.065Zm-4.828,7.475.04-.04-.107,1.081a1.536,1.536,0,0,1-.44.913l-1.3,1.3.054-.38a3.155,3.155,0,0,0-.172-1.418q-.076-.227-.164-.45a3.325,3.325,0,0,0,2.087-1.006ZM5.2,5a3.329,3.329,0,0,0-1,2.09Q3.978,7,3.751,6.926a3.144,3.144,0,0,0-1.416-.172l-.38.054,1.3-1.3a1.527,1.527,0,0,1,.91-.44l1.08-.107L5.2,5Zm9.406-3.961a5.374,5.374,0,0,0-1.746.163c-1.558.38-3.917,1.5-6.937,4.521a2.288,2.288,0,0,0-.687,2.051A3.608,3.608,0,0,0,6.289,9.7a3.606,3.606,0,0,0,1.924,1.049,2.28,2.28,0,0,0,2.048-.688c3.079-3.083,4.192-5.444,4.556-6.987a5,5,0,0,0,.138-1.713,2.835,2.835,0,0,0-.045-.283q-.149-.028-.3-.041Z" fill="#fff"/>
    <path id="Path_3" data-name="Path 3" d="M7.009,12.139A7.881,7.881,0,0,1,3.794,8.86c-1.1.992-1.965,5.054-1.839,5.18a13.372,13.372,0,0,0,5.054-1.9Z" fill="#fff"/>
  </g>
</svg>
